<?xml version="1.0" encoding="UTF-8" standalone="no"?>
<!DOCTYPE svg PUBLIC "-//W3C//DTD SVG 1.1//EN" "http://www.w3.org/Graphics/SVG/1.1/DTD/svg11.dtd">
<!-- 由 Microsoft Visio, SVG Export 生成 hash.svg Page-1 -->
<svg xmlns="http://www.w3.org/2000/svg" xmlns:xlink="http://www.w3.org/1999/xlink" xmlns:ev="http://www.w3.org/2001/xml-events"
		xmlns:v="http://schemas.microsoft.com/visio/2003/SVGExtensions/" width="11.6929in" height="8.26772in"
		viewBox="0 0 841.89 595.276" xml:space="preserve" color-interpolation-filters="sRGB" class="st8">
	<v:documentProperties v:langID="2052" v:metric="true" v:viewMarkup="false">
		<v:userDefs>
			<v:ud v:nameU="msvSubprocessMaster" v:prompt="" v:val="VT4(Rectangle)"/>
			<v:ud v:nameU="msvNoAutoConnect" v:val="VT0(1):26"/>
		</v:userDefs>
	</v:documentProperties>

	<style type="text/css">
	<![CDATA[
		.st1 {fill:#ffffff;stroke:#4672c4;stroke-width:0.75}
		.st2 {fill:#000000;font-family:黑体;font-size:1.5em}
		.st3 {font-family:Calibri;font-size:1em}
		.st4 {fill:#000000;font-family:Calibri;font-size:1.5em}
		.st5 {stroke:#4672c4;stroke-linecap:round;stroke-linejoin:round;stroke-width:1}
		.st6 {fill:none;stroke:none;stroke-width:0.25}
		.st7 {fill:#c00000;font-family:Calibri;font-size:1.5em}
		.st8 {fill:none;fill-rule:evenodd;font-size:12px;overflow:visible;stroke-linecap:square;stroke-miterlimit:3}
	]]>
	</style>

	<g v:mID="0" v:index="1" v:groupContext="foregroundPage">
		<v:userDefs>
			<v:ud v:nameU="msvThemeOrder" v:val="VT0(0):26"/>
		</v:userDefs>
		<title>页-1</title>
		<v:pageProperties v:drawingScale="0.0393701" v:pageScale="0.0393701" v:drawingUnits="24" v:shadowOffsetX="8.50394"
				v:shadowOffsetY="-8.50394"/>
		<v:layer v:name="连接线" v:index="0"/>
		<g id="shape1-1" v:mID="1" v:groupContext="shape" transform="translate(359.843,-274.803)">
			<title>圆形</title>
			<desc>观察点 AS0</desc>
			<v:userDefs>
				<v:ud v:nameU="visVersion" v:val="VT0(15):26"/>
			</v:userDefs>
			<v:textBlock v:margins="rect(4,4,4,4)" v:tabSpace="42.5197"/>
			<v:textRect cx="39.7638" cy="555.512" width="69.59" height="59.6457"/>
			<path d="M0 555.51 A39.7638 39.7638 0 0 1 79.53 555.51 A39.7638 39.7638 0 1 1 0 555.51 Z" class="st1"/>
			<text x="12.76" y="550.7" class="st2" v:langID="2052"><v:paragraph v:horizAlign="1"/><v:tabList/>观察点<v:newlineChar/><tspan
						x="25.86" dy="1.233em" class="st3">AS0</tspan></text>		</g>
		<g id="shape2-5" v:mID="2" v:groupContext="shape" transform="translate(259.055,-172.835)">
			<title>圆形.2</title>
			<desc>AS7</desc>
			<v:userDefs>
				<v:ud v:nameU="visVersion" v:val="VT0(15):26"/>
			</v:userDefs>
			<v:textBlock v:margins="rect(4,4,4,4)" v:tabSpace="42.5197"/>
			<v:textRect cx="39.7638" cy="555.512" width="69.59" height="59.6457"/>
			<path d="M0 555.51 A39.7638 39.7638 0 0 1 79.53 555.51 A39.7638 39.7638 0 1 1 0 555.51 Z" class="st1"/>
			<text x="25.86" y="560.91" class="st4" v:langID="2052"><v:paragraph v:horizAlign="1"/><v:tabList/>AS7</text>		</g>
		<g id="shape3-8" v:mID="3" v:groupContext="shape" transform="translate(459.055,-172.835)">
			<title>圆形.3</title>
			<desc>AS10</desc>
			<v:userDefs>
				<v:ud v:nameU="visVersion" v:val="VT0(15):26"/>
			</v:userDefs>
			<v:textBlock v:margins="rect(4,4,4,4)" v:tabSpace="42.5197"/>
			<v:textRect cx="39.7638" cy="555.512" width="69.59" height="59.6457"/>
			<path d="M0 555.51 A39.7638 39.7638 0 0 1 79.53 555.51 A39.7638 39.7638 0 1 1 0 555.51 Z" class="st1"/>
			<text x="21.3" y="560.91" class="st4" v:langID="2052"><v:paragraph v:horizAlign="1"/><v:tabList/>AS10</text>		</g>
		<g id="shape4-11" v:mID="4" v:groupContext="shape" transform="translate(259.055,-388.189)">
			<title>圆形.4</title>
			<desc>AS1</desc>
			<v:userDefs>
				<v:ud v:nameU="visVersion" v:val="VT0(15):26"/>
			</v:userDefs>
			<v:textBlock v:margins="rect(4,4,4,4)" v:tabSpace="42.5197"/>
			<v:textRect cx="39.7638" cy="555.512" width="69.59" height="59.6457"/>
			<path d="M0 555.51 A39.7638 39.7638 0 0 1 79.53 555.51 A39.7638 39.7638 0 1 1 0 555.51 Z" class="st1"/>
			<text x="25.86" y="560.91" class="st4" v:langID="2052"><v:paragraph v:horizAlign="1"/><v:tabList/>AS1</text>		</g>
		<g id="shape5-14" v:mID="5" v:groupContext="shape" transform="translate(459.055,-388.189)">
			<title>圆形.5</title>
			<desc>AS4</desc>
			<v:userDefs>
				<v:ud v:nameU="visVersion" v:val="VT0(15):26"/>
			</v:userDefs>
			<v:textBlock v:margins="rect(4,4,4,4)" v:tabSpace="42.5197"/>
			<v:textRect cx="39.7638" cy="555.512" width="69.59" height="59.6457"/>
			<path d="M0 555.51 A39.7638 39.7638 0 0 1 79.53 555.51 A39.7638 39.7638 0 1 1 0 555.51 Z" class="st1"/>
			<text x="25.86" y="560.91" class="st4" v:langID="2052"><v:paragraph v:horizAlign="1"/><v:tabList/>AS4</text>		</g>
		<g id="shape6-17" v:mID="6" v:groupContext="shape" transform="translate(127.559,-427.953)">
			<title>圆形.6</title>
			<desc>AS3</desc>
			<v:userDefs>
				<v:ud v:nameU="visVersion" v:val="VT0(15):26"/>
			</v:userDefs>
			<v:textBlock v:margins="rect(4,4,4,4)" v:tabSpace="42.5197"/>
			<v:textRect cx="39.7638" cy="555.512" width="69.59" height="59.6457"/>
			<path d="M0 555.51 A39.7638 39.7638 0 0 1 79.53 555.51 A39.7638 39.7638 0 1 1 0 555.51 Z" class="st1"/>
			<text x="25.86" y="560.91" class="st4" v:langID="2052"><v:paragraph v:horizAlign="1"/><v:tabList/>AS3</text>		</g>
		<g id="shape7-20" v:mID="7" v:groupContext="shape" transform="translate(228.346,-497.748)">
			<title>圆形.7</title>
			<desc>AS2</desc>
			<v:userDefs>
				<v:ud v:nameU="visVersion" v:val="VT0(15):26"/>
			</v:userDefs>
			<v:textBlock v:margins="rect(4,4,4,4)" v:tabSpace="42.5197"/>
			<v:textRect cx="39.7638" cy="555.512" width="69.59" height="59.6457"/>
			<path d="M0 555.51 A39.7638 39.7638 0 0 1 79.53 555.51 A39.7638 39.7638 0 1 1 0 555.51 Z" class="st1"/>
			<text x="25.86" y="560.91" class="st4" v:langID="2052"><v:paragraph v:horizAlign="1"/><v:tabList/>AS2</text>		</g>
		<g id="shape8-23" v:mID="8" v:groupContext="shape" transform="translate(581.102,-442.969)">
			<title>圆形.8</title>
			<desc>AS5</desc>
			<v:userDefs>
				<v:ud v:nameU="visVersion" v:val="VT0(15):26"/>
			</v:userDefs>
			<v:textBlock v:margins="rect(4,4,4,4)" v:tabSpace="42.5197"/>
			<v:textRect cx="39.7638" cy="555.512" width="69.59" height="59.6457"/>
			<path d="M0 555.51 A39.7638 39.7638 0 0 1 79.53 555.51 A39.7638 39.7638 0 1 1 0 555.51 Z" class="st1"/>
			<text x="25.86" y="560.91" class="st4" v:langID="2052"><v:paragraph v:horizAlign="1"/><v:tabList/>AS5</text>		</g>
		<g id="shape9-26" v:mID="9" v:groupContext="shape" transform="translate(728.346,-442.969)">
			<title>圆形.9</title>
			<desc>AS6</desc>
			<v:userDefs>
				<v:ud v:nameU="visVersion" v:val="VT0(15):26"/>
			</v:userDefs>
			<v:textBlock v:margins="rect(4,4,4,4)" v:tabSpace="42.5197"/>
			<v:textRect cx="39.7638" cy="555.512" width="69.59" height="59.6457"/>
			<path d="M0 555.51 A39.7638 39.7638 0 0 1 79.53 555.51 A39.7638 39.7638 0 1 1 0 555.51 Z" class="st1"/>
			<text x="25.86" y="560.91" class="st4" v:langID="2052"><v:paragraph v:horizAlign="1"/><v:tabList/>AS6</text>		</g>
		<g id="shape10-29" v:mID="10" v:groupContext="shape" transform="translate(127.559,-130.315)">
			<title>圆形.10</title>
			<desc>AS8</desc>
			<v:userDefs>
				<v:ud v:nameU="visVersion" v:val="VT0(15):26"/>
			</v:userDefs>
			<v:textBlock v:margins="rect(4,4,4,4)" v:tabSpace="42.5197"/>
			<v:textRect cx="39.7638" cy="555.512" width="69.59" height="59.6457"/>
			<path d="M0 555.51 A39.7638 39.7638 0 0 1 79.53 555.51 A39.7638 39.7638 0 1 1 0 555.51 Z" class="st1"/>
			<text x="25.86" y="560.91" class="st4" v:langID="2052"><v:paragraph v:horizAlign="1"/><v:tabList/>AS8</text>		</g>
		<g id="shape11-32" v:mID="11" v:groupContext="shape" transform="translate(581.102,-130.315)">
			<title>圆形.11</title>
			<desc>AS11</desc>
			<v:userDefs>
				<v:ud v:nameU="visVersion" v:val="VT0(15):26"/>
			</v:userDefs>
			<v:textBlock v:margins="rect(4,4,4,4)" v:tabSpace="42.5197"/>
			<v:textRect cx="39.7638" cy="555.512" width="69.59" height="59.6457"/>
			<path d="M0 555.51 A39.7638 39.7638 0 0 1 79.53 555.51 A39.7638 39.7638 0 1 1 0 555.51 Z" class="st1"/>
			<text x="21.3" y="560.91" class="st4" v:langID="2052"><v:paragraph v:horizAlign="1"/><v:tabList/>AS11</text>		</g>
		<g id="shape12-35" v:mID="12" v:groupContext="shape" transform="translate(728.346,-104.724)">
			<title>圆形.12</title>
			<desc>AS12</desc>
			<v:userDefs>
				<v:ud v:nameU="visVersion" v:val="VT0(15):26"/>
			</v:userDefs>
			<v:textBlock v:margins="rect(4,4,4,4)" v:tabSpace="42.5197"/>
			<v:textRect cx="39.7638" cy="555.512" width="69.59" height="59.6457"/>
			<path d="M0 555.51 A39.7638 39.7638 0 0 1 79.53 555.51 A39.7638 39.7638 0 1 1 0 555.51 Z" class="st1"/>
			<text x="21.3" y="560.91" class="st4" v:langID="2052"><v:paragraph v:horizAlign="1"/><v:tabList/>AS12</text>		</g>
		<g id="shape13-38" v:mID="13" v:groupContext="shape" v:layerMember="0" transform="translate(326.94,-399.832)">
			<title>动态连接线</title>
			<path d="M0 595.28 L44.55 652.42" class="st5"/>
		</g>
		<g id="shape14-41" v:mID="14" v:groupContext="shape" v:layerMember="0" transform="translate(207.087,-467.717)">
			<title>动态连接线.14</title>
			<path d="M0 595.28 L51.97 635.04" class="st5"/>
		</g>
		<g id="shape15-44" v:mID="15" v:groupContext="shape" v:layerMember="0" transform="translate(268.11,-497.748)">
			<title>动态连接线.15</title>
			<path d="M0 595.28 L14.69 628.67" class="st5"/>
		</g>
		<g id="shape16-47" v:mID="16" v:groupContext="shape" v:layerMember="0" transform="translate(470.698,-399.832)">
			<title>动态连接线.16</title>
			<path d="M0 595.28 L-42.97 652.42" class="st5"/>
		</g>
		<g id="shape17-50" v:mID="17" v:groupContext="shape" v:layerMember="0" transform="translate(592.745,-454.611)">
			<title>动态连接线.17</title>
			<path d="M0 595.28 L-54.16 621.93" class="st5"/>
		</g>
		<g id="shape18-53" v:mID="18" v:groupContext="shape" v:layerMember="0" transform="translate(728.346,-475.646)">
			<title>动态连接线.18</title>
			<path d="M0 588.19 L-67.72 588.19" class="st5"/>
		</g>
		<g id="shape19-56" v:mID="19" v:groupContext="shape" v:layerMember="0" transform="translate(728.346,-150.31)">
			<title>动态连接线.19</title>
			<path d="M0 601.1 L-79.36 603.63" class="st5"/>
		</g>
		<g id="shape20-59" v:mID="20" v:groupContext="shape" v:layerMember="0" transform="translate(581.102,-170.079)">
			<title>动态连接线.20</title>
			<path d="M0 595.28 L-54.16 580.88" class="st5"/>
		</g>
		<g id="shape21-62" v:mID="21" v:groupContext="shape" v:layerMember="0" transform="translate(459.055,-212.598)">
			<title>动态连接线.21</title>
			<path d="M0 595.28 L-31.33 521.43" class="st5"/>
		</g>
		<g id="shape22-65" v:mID="22" v:groupContext="shape" v:layerMember="0" transform="translate(326.94,-240.719)">
			<title>动态连接线.22</title>
			<path d="M0 595.28 L44.55 549.55" class="st5"/>
		</g>
		<g id="shape23-68" v:mID="23" v:groupContext="shape" v:layerMember="0" transform="translate(207.087,-170.079)">
			<title>动态连接线.23</title>
			<path d="M0 595.28 L55.66 569.48" class="st5"/>
		</g>
		<g id="shape24-71" v:mID="24" v:groupContext="shape" transform="translate(259.055,-354.331)">
			<title>工作表.24</title>
			<desc>PX1</desc>
			<v:textBlock v:margins="rect(4,4,4,4)" v:tabSpace="42.5197"/>
			<v:textRect cx="76" cy="585.276" width="152" height="20"/>
			<rect x="0" y="575.276" width="152" height="20" class="st6"/>
			<text x="62.12" y="590.68" class="st7" v:langID="2052"><v:paragraph v:horizAlign="1"/><v:tabList/>PX1</text>		</g>
		<g id="shape27-74" v:mID="27" v:groupContext="shape" transform="translate(386.583,-354.331)">
			<title>工作表.27</title>
			<desc>PX4</desc>
			<v:textBlock v:margins="rect(4,4,4,4)" v:tabSpace="42.5197"/>
			<v:textRect cx="76" cy="585.276" width="152" height="20"/>
			<rect x="0" y="575.276" width="152" height="20" class="st6"/>
			<text x="62.12" y="590.68" class="st7" v:langID="2052"><v:paragraph v:horizAlign="1"/><v:tabList/>PX4</text>		</g>
		<g id="shape28-77" v:mID="28" v:groupContext="shape" transform="translate(145.638,-427.953)">
			<title>工作表.28</title>
			<desc>PX3</desc>
			<v:textBlock v:margins="rect(4,4,4,4)" v:tabSpace="42.5197"/>
			<v:textRect cx="76" cy="585.276" width="152" height="20"/>
			<rect x="0" y="575.276" width="152" height="20" class="st6"/>
			<text x="62.12" y="590.68" class="st7" v:langID="2052"><v:paragraph v:horizAlign="1"/><v:tabList/>PX3</text>		</g>
		<g id="shape29-80" v:mID="29" v:groupContext="shape" transform="translate(222.819,-476.299)">
			<title>工作表.29</title>
			<desc>PX2</desc>
			<v:textBlock v:margins="rect(4,4,4,4)" v:tabSpace="42.5197"/>
			<v:textRect cx="76" cy="585.276" width="152" height="20"/>
			<rect x="0" y="575.276" width="152" height="20" class="st6"/>
			<text x="62.12" y="590.68" class="st7" v:langID="2052"><v:paragraph v:horizAlign="1"/><v:tabList/>PX2</text>		</g>
		<g id="shape30-83" v:mID="30" v:groupContext="shape" transform="translate(505.102,-417.953)">
			<title>工作表.30</title>
			<desc>PX5</desc>
			<v:textBlock v:margins="rect(4,4,4,4)" v:tabSpace="42.5197"/>
			<v:textRect cx="76" cy="585.276" width="152" height="20"/>
			<rect x="0" y="575.276" width="152" height="20" class="st6"/>
			<text x="62.12" y="590.68" class="st7" v:langID="2052"><v:paragraph v:horizAlign="1"/><v:tabList/>PX5</text>		</g>
		<g id="shape31-86" v:mID="31" v:groupContext="shape" transform="translate(618.11,-453.543)">
			<title>工作表.31</title>
			<desc>PX6</desc>
			<v:textBlock v:margins="rect(4,4,4,4)" v:tabSpace="42.5197"/>
			<v:textRect cx="76" cy="585.276" width="152" height="20"/>
			<rect x="0" y="575.276" width="152" height="20" class="st6"/>
			<text x="62.12" y="590.68" class="st7" v:langID="2052"><v:paragraph v:horizAlign="1"/><v:tabList/>PX6</text>		</g>
		<g id="shape32-89" v:mID="32" v:groupContext="shape" transform="translate(244.85,-254.803)">
			<title>工作表.32</title>
			<desc>PX7</desc>
			<v:textBlock v:margins="rect(4,4,4,4)" v:tabSpace="42.5197"/>
			<v:textRect cx="76" cy="585.276" width="152" height="20"/>
			<rect x="0" y="575.276" width="152" height="20" class="st6"/>
			<text x="62.12" y="590.68" class="st7" v:langID="2052"><v:paragraph v:horizAlign="1"/><v:tabList/>PX7</text>		</g>
		<g id="shape33-92" v:mID="33" v:groupContext="shape" transform="translate(145.638,-189.843)">
			<title>工作表.33</title>
			<desc>PX8</desc>
			<v:textBlock v:margins="rect(4,4,4,4)" v:tabSpace="42.5197"/>
			<v:textRect cx="76" cy="585.276" width="152" height="20"/>
			<rect x="0" y="575.276" width="152" height="20" class="st6"/>
			<text x="62.12" y="590.68" class="st7" v:langID="2052"><v:paragraph v:horizAlign="1"/><v:tabList/>PX8</text>		</g>
		<g id="shape34-95" v:mID="34" v:groupContext="shape" transform="translate(157.071,-129.134)">
			<title>工作表.34</title>
			<desc>PX9</desc>
			<v:textBlock v:margins="rect(4,4,4,4)" v:tabSpace="42.5197"/>
			<v:textRect cx="76" cy="585.276" width="152" height="20"/>
			<rect x="0" y="575.276" width="152" height="20" class="st6"/>
			<text x="62.12" y="590.68" class="st7" v:langID="2052"><v:paragraph v:horizAlign="1"/><v:tabList/>PX9</text>		</g>
		<g id="shape35-98" v:mID="35" v:groupContext="shape" transform="translate(467.717,-150.394)">
			<title>工作表.35</title>
			<desc>PX11</desc>
			<v:textBlock v:margins="rect(4,4,4,4)" v:tabSpace="42.5197"/>
			<v:textRect cx="76" cy="585.276" width="152" height="20"/>
			<rect x="0" y="575.276" width="152" height="20" class="st6"/>
			<text x="57.56" y="590.68" class="st7" v:langID="2052"><v:paragraph v:horizAlign="1"/><v:tabList/>PX11</text>		</g>
		<g id="shape36-101" v:mID="36" v:groupContext="shape" transform="translate(609.449,-117.559)">
			<title>工作表.36</title>
			<desc>PX12</desc>
			<v:textBlock v:margins="rect(4,4,4,4)" v:tabSpace="42.5197"/>
			<v:textRect cx="76" cy="585.276" width="152" height="20"/>
			<rect x="0" y="575.276" width="152" height="20" class="st6"/>
			<text x="57.56" y="590.68" class="st7" v:langID="2052"><v:paragraph v:horizAlign="1"/><v:tabList/>PX12</text>		</g>
		<g id="shape37-104" v:mID="37" v:groupContext="shape" transform="translate(259.055,-68.4252)">
			<title>圆形.37</title>
			<desc>AS9</desc>
			<v:userDefs>
				<v:ud v:nameU="visVersion" v:val="VT0(15):26"/>
			</v:userDefs>
			<v:textBlock v:margins="rect(4,4,4,4)" v:tabSpace="42.5197"/>
			<v:textRect cx="39.7638" cy="555.512" width="69.59" height="59.6457"/>
			<path d="M0 555.51 A39.7638 39.7638 0 0 1 79.53 555.51 A39.7638 39.7638 0 1 1 0 555.51 Z" class="st1"/>
			<text x="25.86" y="560.91" class="st4" v:langID="2052"><v:paragraph v:horizAlign="1"/><v:tabList/>AS9</text>		</g>
		<g id="shape38-107" v:mID="38" v:groupContext="shape" v:layerMember="0" transform="translate(195.444,-141.958)">
			<title>动态连接线.38</title>
			<path d="M0 595.28 L63.61 629.04" class="st5"/>
		</g>
		<g id="shape40-110" v:mID="40" v:groupContext="shape" transform="translate(386.583,-254.803)">
			<title>工作表.40</title>
			<desc>PX10</desc>
			<v:textBlock v:margins="rect(4,4,4,4)" v:tabSpace="42.5197"/>
			<v:textRect cx="76" cy="585.276" width="152" height="20"/>
			<rect x="0" y="575.276" width="152" height="20" class="st6"/>
			<text x="57.56" y="590.68" class="st7" v:langID="2052"><v:paragraph v:horizAlign="1"/><v:tabList/>PX10</text>		</g>
	</g>
</svg>
